<svg xmlns="http://www.w3.org/2000/svg" width="1200" height="800" viewBox="0 0 1200 800" role="img" aria-labelledby="title desc">
  <title id="title">The collapse of Assyrian power</title>
  <desc id="desc">The collapse of Assyrian power. Schematic coordinate map showing Nineveh, established; Harran, established; Carchemish, established; Babylon, established. Orientation to major centers; military routes and imperial borders are not reconstructed.</desc>
  <rect width="1200" height="800" fill="#F7F2E8"/>
  <style>text { font-family: Inter, system-ui, -apple-system, BlinkMacSystemFont, "Segoe UI", sans-serif; }</style>
  <rect x="48" y="44" width="1104" height="712" rx="32" fill="#FFFDFC" stroke="#CAD5D2" stroke-width="3"/>
<text x="96" y="112" font-size="38" font-weight="750" fill="#19354D" text-anchor="start"><tspan x="96" dy="0">The collapse of Assyrian power</tspan></text>
<text x="96" y="186" font-size="20" font-weight="400" fill="#5D6B72" text-anchor="start"><tspan x="96" dy="0">Primary texts: Nahum 1–3</tspan></text>
<rect x="100" y="241" width="640" height="360" rx="18" fill="#DDECEE" stroke="#19354D" stroke-width="3"/>
<line x1="228.0" y1="241" x2="228.0" y2="601" stroke="#B8CCCF" stroke-width="1"/>
<line x1="100" y1="313.0" x2="740" y2="313.0" stroke="#B8CCCF" stroke-width="1"/>
<line x1="356.0" y1="241" x2="356.0" y2="601" stroke="#B8CCCF" stroke-width="1"/>
<line x1="100" y1="385.0" x2="740" y2="385.0" stroke="#B8CCCF" stroke-width="1"/>
<line x1="484.0" y1="241" x2="484.0" y2="601" stroke="#B8CCCF" stroke-width="1"/>
<line x1="100" y1="457.0" x2="740" y2="457.0" stroke="#B8CCCF" stroke-width="1"/>
<line x1="612.0" y1="241" x2="612.0" y2="601" stroke="#B8CCCF" stroke-width="1"/>
<line x1="100" y1="529.0" x2="740" y2="529.0" stroke="#B8CCCF" stroke-width="1"/>
<text x="118" y="275" font-size="22" font-weight="800" fill="#19354D" text-anchor="start"><tspan x="118" dy="0">N</tspan></text>
<path d="M 124 289 L 124 337 M 114 301 L 124 289 L 134 301" stroke="#19354D" stroke-width="4" fill="none"/>
<circle cx="563.2" cy="315.7" r="17" fill="#A6533F" stroke="#FFFFFF" stroke-width="4"/>
<text x="563" y="322" font-size="18" font-weight="800" fill="#FFFFFF" text-anchor="middle"><tspan x="563" dy="0">1</tspan></text>
<circle cx="790" cy="276" r="15" fill="#A6533F"/>
<text x="790" y="283" font-size="16" font-weight="800" fill="#FFFFFF" text-anchor="middle"><tspan x="790" dy="0">1</tspan></text>
<text x="820" y="276" font-size="20" font-weight="700" fill="#19354D" text-anchor="start"><tspan x="820" dy="0">Nineveh</tspan></text>
<text x="820" y="300" font-size="15" font-weight="650" fill="#5D6B72" text-anchor="start"><tspan x="820" dy="0">[established]</tspan></text>
<circle cx="252.9" cy="282.6" r="17" fill="#A6533F" stroke="#FFFFFF" stroke-width="4"/>
<text x="252" y="289" font-size="18" font-weight="800" fill="#FFFFFF" text-anchor="middle"><tspan x="252" dy="0">2</tspan></text>
<circle cx="790" cy="352" r="15" fill="#A6533F"/>
<text x="790" y="359" font-size="16" font-weight="800" fill="#FFFFFF" text-anchor="middle"><tspan x="790" dy="0">2</tspan></text>
<text x="820" y="352" font-size="20" font-weight="700" fill="#19354D" text-anchor="start"><tspan x="820" dy="0">Harran</tspan></text>
<text x="820" y="376" font-size="15" font-weight="650" fill="#5D6B72" text-anchor="start"><tspan x="820" dy="0">[established]</tspan></text>
<circle cx="176.3" cy="284.9" r="17" fill="#A6533F" stroke="#FFFFFF" stroke-width="4"/>
<text x="176" y="291" font-size="18" font-weight="800" fill="#FFFFFF" text-anchor="middle"><tspan x="176" dy="0">3</tspan></text>
<circle cx="790" cy="428" r="15" fill="#A6533F"/>
<text x="790" y="435" font-size="16" font-weight="800" fill="#FFFFFF" text-anchor="middle"><tspan x="790" dy="0">3</tspan></text>
<text x="820" y="428" font-size="20" font-weight="700" fill="#19354D" text-anchor="start"><tspan x="820" dy="0">Carchemish</tspan></text>
<text x="820" y="452" font-size="15" font-weight="650" fill="#5D6B72" text-anchor="start"><tspan x="820" dy="0">[established]</tspan></text>
<circle cx="658.8" cy="565.9" r="17" fill="#A6533F" stroke="#FFFFFF" stroke-width="4"/>
<text x="658" y="572" font-size="18" font-weight="800" fill="#FFFFFF" text-anchor="middle"><tspan x="658" dy="0">4</tspan></text>
<circle cx="790" cy="504" r="15" fill="#A6533F"/>
<text x="790" y="511" font-size="16" font-weight="800" fill="#FFFFFF" text-anchor="middle"><tspan x="790" dy="0">4</tspan></text>
<text x="820" y="504" font-size="20" font-weight="700" fill="#19354D" text-anchor="start"><tspan x="820" dy="0">Babylon</tspan></text>
<text x="820" y="528" font-size="15" font-weight="650" fill="#5D6B72" text-anchor="start"><tspan x="820" dy="0">[established]</tspan></text>
<text x="100" y="660" font-size="20" font-weight="400" fill="#26333B" text-anchor="start"><tspan x="100" dy="0">Orientation to major centers; military routes and imperial borders are not reconstructed.</tspan></text>
<text x="96" y="724" font-size="18" font-weight="700" fill="#5D6B72" text-anchor="start"><tspan x="96" dy="0">SCHEMATIC COORDINATE MAP • NO ANCIENT BORDERS OR UNATTESTED ROUTES</tspan></text>
</svg>
